# xmcd CD Database Entry
#
# Track frame offsets:
# 150
# 25227
# 44775
# 67817
# 103965
# 131580
# 156527
# 179708
# 203676
# 227206
# 257751
# 271683
# 297761
#
# Disc length: 4427 seconds
#
# Revision: 3
# Processed by: cddbd v1.4PL0 Copyright (c) Steve Scherf et al.
# Submitted via: tcd 2.0b
#
DISCID=c511490d
DTITLE=Onbekend - Onbekend
DYEAR=1900
DGENRE=
TTITLE0=Nummer 1
TTITLE1=Nummer 2
TTITLE2=Nummer 3
TTITLE3=Nummer 4
TTITLE4=Nummer 5
TTITLE5=Nummer 6
TTITLE6=Nummer 7
TTITLE7=Nummer 8
TTITLE8=Nummer 9
TTITLE9=Nummer 10
TTITLE10=Nummer 11
TTITLE11=Nummer 12
TTITLE12=Nummer 13
EXTD=
EXTT0=
EXTT1=
EXTT2=
EXTT3=
EXTT4=
EXTT5=
EXTT6=
EXTT7=
EXTT8=
EXTT9=
EXTT10=
EXTT11=
EXTT12=
PLAYORDER=
